<svg width="1080" height="1229" viewBox="0 0 1080 1229" fill="none" xmlns="http://www.w3.org/2000/svg">
<path d="M639.951 482.952L715.955 447.535L688.603 407.719L765.278 424.545L777.917 418.659L760.924 371.012L815.849 400.973L848.507 385.754L838.967 332.956L886.781 367.923L981.315 323.862L960.122 286.943L956.593 280.792L1027.42 302.34L1027.46 302.353L1080 277.869C1075.76 276.07 1071.56 274.35 1067.38 272.664C1066.42 272.28 1065.45 271.883 1064.48 271.506C1060.38 269.872 1056.31 268.285 1052.27 266.757C1051.78 266.579 1051.31 266.407 1050.82 266.228C1047.11 264.846 1043.44 263.51 1039.8 262.22C1038.93 261.909 1038.07 261.605 1037.21 261.301C1033.26 259.925 1029.35 258.596 1025.47 257.319C1024.76 257.094 1024.06 256.876 1023.37 256.645C1019.9 255.52 1016.45 254.436 1013.03 253.397C1012.32 253.186 1011.62 252.967 1010.92 252.756C1007.1 251.612 1003.33 250.52 999.569 249.482C998.778 249.264 997.993 249.045 997.201 248.834C993.753 247.895 990.338 246.995 986.95 246.142C986.494 246.023 986.038 245.904 985.588 245.791C981.885 244.872 978.215 244.006 974.579 243.179C973.761 243 972.942 242.822 972.124 242.643C968.487 241.836 964.871 241.062 961.296 240.361C961.269 240.355 961.229 240.348 961.195 240.341C957.579 239.634 953.996 238.979 950.441 238.371C949.656 238.232 948.864 238.099 948.086 237.96C944.577 237.378 941.109 236.829 937.661 236.333C937.318 236.287 936.983 236.247 936.641 236.195C933.461 235.745 930.308 235.341 927.175 234.978C926.437 234.885 925.705 234.799 924.974 234.72C921.64 234.343 918.333 234.005 915.065 233.714C914.488 233.668 913.925 233.622 913.355 233.575C910.443 233.331 907.545 233.119 904.673 232.947C904.049 232.907 903.419 232.861 902.802 232.828C899.608 232.649 896.442 232.511 893.302 232.411C892.631 232.392 891.974 232.378 891.303 232.358C888.465 232.286 885.647 232.239 882.856 232.239C882.534 232.233 882.206 232.22 881.884 232.22C881.796 232.22 881.702 232.226 881.609 232.226C876.785 232.233 872.028 232.325 867.346 232.524C867.232 232.53 867.118 232.53 867.01 232.544C862.421 232.735 857.906 233.026 853.445 233.397C853.069 233.43 852.7 233.47 852.338 233.496C848.132 233.866 843.979 234.316 839.88 234.825C839.404 234.885 838.947 234.945 838.478 235.011C834.452 235.54 830.481 236.135 826.57 236.81C826.134 236.882 825.691 236.955 825.255 237.034C821.27 237.736 817.338 238.503 813.467 239.343C813.159 239.409 812.837 239.475 812.528 239.541C808.416 240.447 804.364 241.426 800.379 242.491C800.338 242.498 800.305 242.504 800.264 242.511C796.246 243.589 792.294 244.733 788.403 245.943C788.135 246.029 787.867 246.122 787.598 246.208C783.962 247.352 780.38 248.569 776.844 249.839C776.455 249.978 776.066 250.123 775.683 250.262C772.255 251.512 768.881 252.815 765.56 254.178C765.164 254.336 764.768 254.502 764.366 254.667C761.038 256.049 757.751 257.485 754.524 258.973C754.188 259.118 753.86 259.27 753.538 259.423C750.17 260.99 746.849 262.61 743.589 264.284C743.434 264.363 743.287 264.436 743.139 264.509C739.765 266.255 736.437 268.054 733.177 269.906C732.995 270.011 732.821 270.111 732.633 270.216C729.534 271.982 726.481 273.801 723.476 275.666C723.16 275.865 722.845 276.07 722.523 276.268C719.658 278.06 716.827 279.899 714.056 281.771C713.701 282.016 713.352 282.254 713.003 282.492C710.253 284.363 707.542 286.288 704.879 288.233C704.564 288.464 704.248 288.696 703.94 288.927C701.196 290.944 698.512 293.001 695.869 295.091C695.668 295.25 695.473 295.402 695.272 295.554C692.481 297.783 689.73 300.052 687.047 302.347C686.946 302.426 686.852 302.505 686.758 302.585C684.142 304.827 681.572 307.102 679.05 309.41C678.808 309.629 678.567 309.853 678.325 310.085C675.951 312.261 673.616 314.463 671.335 316.692C671.04 316.983 670.738 317.274 670.443 317.572C668.209 319.768 666.015 321.99 663.855 324.232C663.573 324.523 663.298 324.807 663.016 325.105C660.822 327.393 658.682 329.708 656.576 332.036C656.368 332.261 656.16 332.486 655.958 332.718C653.731 335.191 651.557 337.678 649.424 340.185C649.357 340.257 649.283 340.337 649.223 340.416C647.056 342.969 644.942 345.542 642.869 348.121C642.688 348.34 642.521 348.558 642.346 348.776C640.421 351.184 638.536 353.591 636.697 356.025C636.463 356.336 636.228 356.653 635.986 356.964C634.208 359.312 632.464 361.673 630.76 364.041C630.525 364.372 630.284 364.709 630.042 365.033C628.338 367.427 626.674 369.808 625.037 372.203C624.843 372.494 624.642 372.771 624.447 373.062C622.75 375.556 621.099 378.049 619.489 380.543C619.375 380.708 619.261 380.88 619.147 381.059C617.463 383.664 615.826 386.264 614.223 388.863C614.095 389.068 613.975 389.273 613.841 389.485C612.344 391.925 610.882 394.372 609.453 396.8C609.265 397.13 609.077 397.441 608.889 397.765C607.534 400.093 606.206 402.415 604.911 404.723C604.71 405.094 604.509 405.451 604.307 405.814C603.033 408.103 601.791 410.385 600.584 412.647C600.396 412.997 600.215 413.341 600.027 413.685C598.799 416.006 597.605 418.301 596.438 420.59C596.351 420.762 596.257 420.94 596.163 421.112V421.126C628.09 298.709 627.929 95.4642 326.685 0.210903L349.99 52.6922L350.029 52.7119L417.785 82.329L411.032 84.6769L370.449 98.791L412.379 193.237L471.723 197.834L429.355 231.466L443.837 264.085L505.22 277.062L460.659 301.983L466.269 314.609L535.289 351.574L488.138 363.882L533.989 467.138C533.889 467.019 533.782 466.894 533.682 466.775C532.417 465.24 531.114 463.686 529.783 462.119C529.565 461.861 529.35 461.603 529.127 461.345C527.785 459.771 526.41 458.17 525.003 456.556C524.772 456.298 524.546 456.034 524.314 455.769C522.891 454.149 521.434 452.509 519.948 450.862C519.72 450.604 519.494 450.352 519.263 450.094C517.751 448.428 516.208 446.748 514.633 445.055C514.407 444.81 514.19 444.572 513.965 444.334C512.351 442.608 510.702 440.868 509.025 439.122C508.823 438.91 508.629 438.705 508.43 438.5C506.706 436.715 504.942 434.922 503.149 433.123C502.947 432.918 502.748 432.72 502.544 432.515C500.709 430.676 498.841 428.837 496.93 426.992C496.718 426.794 496.501 426.582 496.283 426.377C494.431 424.591 492.544 422.799 490.625 421.013C490.36 420.775 490.096 420.524 489.831 420.279C487.963 418.553 486.071 416.827 484.142 415.1C483.817 414.809 483.489 414.518 483.165 414.227C481.277 412.547 479.362 410.874 477.42 409.201C477.046 408.883 476.665 408.559 476.288 408.242C474.369 406.608 472.422 404.974 470.452 403.347C470.035 403.004 469.618 402.666 469.202 402.329C467.237 400.722 465.25 399.128 463.229 397.54C462.787 397.197 462.344 396.846 461.898 396.495C459.883 394.928 457.844 393.367 455.781 391.819C455.31 391.469 454.833 391.112 454.358 390.761C452.285 389.227 450.186 387.692 448.064 386.178C447.582 385.834 447.102 385.497 446.62 385.159C444.474 383.645 442.303 382.15 440.105 380.662C439.62 380.331 439.133 380.007 438.645 379.683C436.418 378.188 434.162 376.72 431.879 375.265C431.407 374.961 430.938 374.663 430.461 374.359C428.131 372.89 425.77 371.442 423.385 370.013C422.942 369.742 422.505 369.478 422.062 369.213C419.609 367.758 417.125 366.33 414.62 364.927C414.224 364.696 413.833 364.478 413.437 364.259C410.843 362.817 408.217 361.402 405.565 360.013C405.24 359.841 404.915 359.676 404.588 359.504C401.812 358.062 399.003 356.66 396.165 355.291C395.85 355.139 395.536 354.987 395.222 354.841C392.37 353.472 389.485 352.136 386.571 350.84C386.257 350.707 385.937 350.569 385.622 350.436C382.79 349.186 379.93 347.976 377.04 346.812C376.654 346.653 376.264 346.501 375.882 346.349C373.038 345.211 370.171 344.107 367.273 343.049C366.84 342.89 366.408 342.744 365.973 342.586C363.103 341.554 360.204 340.549 357.28 339.596C356.811 339.444 356.34 339.292 355.868 339.14C352.956 338.207 350.021 337.308 347.055 336.461C346.562 336.322 346.069 336.183 345.577 336.044C342.61 335.211 339.62 334.417 336.601 333.67C336.095 333.544 335.592 333.419 335.086 333.3C332.052 332.566 328.988 331.878 325.898 331.236C325.401 331.13 324.905 331.031 324.407 330.925C321.283 330.304 318.134 329.722 314.957 329.193C314.477 329.113 314 329.034 313.519 328.948C310.298 328.432 307.048 327.969 303.775 327.552C303.327 327.493 302.881 327.44 302.433 327.387C299.095 326.977 295.727 326.633 292.331 326.342C291.935 326.309 291.542 326.276 291.144 326.236C287.664 325.958 284.152 325.74 280.609 325.588C280.291 325.575 279.979 325.555 279.663 325.542C276.009 325.396 272.327 325.323 268.617 325.317C268.467 325.317 268.321 325.303 268.169 325.303C268.079 325.303 267.985 325.31 267.891 325.31C265.697 325.31 263.496 325.343 261.277 325.39C260.739 325.403 260.197 325.429 259.656 325.449C257.956 325.495 256.245 325.555 254.531 325.641C253.797 325.674 253.06 325.714 252.322 325.753C250.734 325.839 249.14 325.945 247.544 326.057C246.826 326.11 246.105 326.157 245.385 326.21C243.498 326.362 241.6 326.534 239.696 326.719C239.305 326.752 238.917 326.785 238.526 326.825C236.207 327.063 233.875 327.327 231.537 327.618C231.021 327.684 230.502 327.764 229.986 327.83C228.162 328.061 226.331 328.319 224.493 328.597C223.772 328.703 223.047 328.816 222.323 328.928C220.612 329.193 218.896 329.477 217.171 329.781C216.479 329.9 215.788 330.019 215.093 330.138C213.012 330.522 210.929 330.912 208.83 331.335C208.531 331.395 208.235 331.448 207.936 331.514C205.504 332.01 203.059 332.539 200.609 333.101C200.092 333.214 199.568 333.346 199.053 333.465C197.137 333.915 195.21 334.378 193.282 334.867C192.55 335.046 191.816 335.238 191.086 335.429C189.285 335.899 187.477 336.382 185.661 336.884C184.966 337.083 184.272 337.268 183.572 337.466C181.313 338.108 179.046 338.776 176.769 339.47C176.565 339.537 176.36 339.589 176.156 339.656C173.624 340.436 171.077 341.256 168.522 342.103C167.967 342.288 167.411 342.486 166.858 342.672C164.887 343.34 162.911 344.027 160.927 344.735C160.165 345.006 159.4 345.277 158.634 345.562C156.771 346.237 154.895 346.944 153.021 347.658C152.3 347.936 151.582 348.207 150.857 348.485C148.477 349.411 146.087 350.37 143.689 351.362C143.516 351.428 143.345 351.495 143.175 351.561C140.557 352.652 137.931 353.77 135.295 354.927C134.682 355.192 134.071 355.476 133.461 355.741C131.461 356.627 129.454 357.54 127.441 358.472C126.631 358.849 125.821 359.226 125.012 359.61C123.096 360.516 121.176 361.435 119.251 362.381C118.494 362.745 117.739 363.115 116.98 363.486C114.482 364.722 111.972 365.999 109.453 367.302C109.32 367.374 109.186 367.441 109.047 367.513C106.359 368.909 103.662 370.357 100.952 371.839C100.26 372.216 99.5632 372.606 98.8688 372.996C96.8609 374.101 94.8509 375.225 92.8329 376.383C91.9682 376.872 91.1034 377.375 90.2359 377.871C88.2864 379.008 86.3314 380.159 84.3765 381.323C83.5721 381.806 82.7751 382.276 81.9707 382.758C79.3711 384.332 76.7687 385.926 74.1563 387.573C74.0329 387.646 73.9094 387.725 73.7867 387.805C71.0347 389.538 68.27 391.317 65.4973 393.136C64.7191 393.638 63.9355 394.174 63.1519 394.69C61.1553 396.013 59.1528 397.355 57.1428 398.718C56.2049 399.359 55.2637 400.007 54.3204 400.656C52.3628 402.005 50.3998 403.374 48.4294 404.769C47.5647 405.378 46.7026 405.98 45.8378 406.601C43.1463 408.526 40.4466 410.477 37.7396 412.481C37.6323 412.561 37.5276 412.633 37.4203 412.713C34.6033 414.796 31.7782 416.939 28.9397 419.102C28.0911 419.757 27.231 420.431 26.3797 421.086C24.367 422.647 22.3517 424.221 20.331 425.821C19.3428 426.602 18.3553 427.389 17.3671 428.176C15.3571 429.79 13.3391 431.423 11.3191 433.077C10.4302 433.804 9.54728 434.519 8.65904 435.253C5.78432 437.634 2.89619 440.041 0 442.515L57.5856 450.214L57.6198 450.2L118.549 408.579L117.068 415.491L108.161 456.999L211.786 470.869L246.658 423.308L253.731 476.484L289.524 481.272L332.715 436.371L331.1 486.848L344.955 488.693L412.9 449.843L399.014 495.942L507.838 510.506C447.611 514.282 346.193 531.492 270.252 599.939C269.848 600.303 269.445 600.66 269.041 601.024C212.061 652.976 169.749 734.102 170.605 860.559C170.763 883.602 172.351 908.14 175.545 934.284L214.21 891.512V891.473L213.254 818.402L218.24 823.482H218.243L248.176 853.959L317.756 776.986L297.239 721.906L345.92 745.835L369.951 719.253L356.319 658.849L397.876 688.38L407.177 678.089L412.468 600.825L443.483 637.942L532.309 539.68C532.671 545.487 533.86 551.479 535.173 557.127C536.279 561.909 537.488 566.446 538.333 570.401L538.454 570.97C542.6 590.957 545.203 611.229 547.215 631.52C547.457 633.901 547.678 636.276 547.9 638.657C548.114 640.899 548.309 643.154 548.497 645.396C550.268 666.613 551.194 687.897 551.315 709.207C551.341 713.44 551.328 717.679 551.294 721.912C551.066 748.348 549.644 774.784 547.215 801.173C546.746 806.22 546.249 811.246 545.706 816.279C543.298 838.826 540.185 861.327 536.444 883.721C535.546 889.098 534.615 894.482 533.638 899.846C529.602 922.287 524.977 944.615 519.866 966.778C518.525 972.552 517.169 978.3 515.773 984.054C511.391 1002.07 506.724 1019.98 501.802 1037.75C500.814 1041.33 499.803 1044.91 498.794 1048.49C497.187 1054.2 495.557 1059.9 493.893 1065.62C490.122 1078.57 486.23 1091.48 482.171 1104.35C478.919 1113.94 475.782 1123.59 472.598 1133.21C470.771 1138.79 468.919 1144.37 467.035 1149.92C465.357 1154.87 463.664 1159.81 461.911 1164.74C454.875 1184.57 446.452 1203.66 437.998 1222.94C436.158 1227.16 438.808 1227.99 442.623 1228.13C447.872 1228.34 453.082 1227.66 458.316 1227.66C465.37 1227.66 472.436 1227.67 479.487 1227.67H522.524C546.048 1227.67 569.569 1227.67 593.083 1227.66C604.851 1227.66 616.605 1227.66 628.372 1227.66C629.277 1227.66 630.304 1227.74 631.357 1227.82C632.343 1227.89 633.356 1227.97 634.349 1227.97C634.403 1227.97 634.457 1227.98 634.51 1227.98C634.537 1227.98 634.557 1227.98 634.584 1227.98C635.181 1227.98 635.765 1227.93 636.328 1227.87C636.456 1227.84 636.577 1227.83 636.704 1227.8C637.281 1227.71 637.838 1227.58 638.341 1227.37C639.327 1226.94 640.159 1226.25 640.702 1225.17C642.319 1221.91 641.917 1217.84 642.46 1214.35C646.358 1189.24 648.236 1163.76 650.041 1138.44C650.081 1137.84 650.122 1137.25 650.162 1136.66C650.195 1136.15 650.229 1135.64 650.263 1135.14C650.517 1131.58 650.739 1128.02 650.947 1124.45C650.987 1123.75 651.021 1123.03 651.061 1122.32C651.309 1118.08 651.524 1113.85 651.738 1109.61C651.839 1107.46 651.96 1105.31 652.054 1103.16C652.081 1102.58 652.121 1102 652.141 1101.42C652.148 1101.19 652.161 1100.96 652.175 1100.73C652.181 1100.52 652.188 1100.31 652.195 1100.1C652.289 1097.92 652.349 1095.73 652.429 1093.54C652.591 1089.53 652.745 1085.52 652.866 1081.51C652.892 1080.54 652.933 1079.58 652.966 1078.62C652.966 1078.52 652.973 1078.43 652.973 1078.33C652.986 1077.94 653 1077.55 653.006 1077.15C653.013 1076.9 653.02 1076.66 653.027 1076.41C653.033 1076.33 653.033 1076.25 653.033 1076.16C653.074 1074.78 653.08 1073.39 653.114 1072.01C653.275 1065.91 653.396 1059.8 653.489 1053.7C653.523 1051.54 653.563 1049.37 653.597 1047.21C653.603 1046.65 653.617 1046.09 653.617 1045.54C653.671 1041.79 653.697 1038.04 653.724 1034.3C653.751 1030.27 653.765 1026.24 653.778 1022.21C653.778 1021.51 653.778 1020.79 653.778 1020.09C653.778 1019.68 653.778 1019.27 653.778 1018.86C653.778 1018.59 653.778 1018.31 653.778 1018.04C653.778 1016.38 653.778 1014.71 653.778 1013.05C653.778 1012.94 653.778 1012.83 653.778 1012.73C653.778 1012.2 653.778 1011.66 653.778 1011.12C653.778 1010.93 653.778 1010.75 653.778 1010.56C653.771 1009.67 653.765 1008.77 653.765 1007.88C653.765 1007.63 653.765 1007.39 653.758 1007.14C653.758 1006.76 653.758 1006.38 653.758 1005.99C653.751 1005.59 653.751 1005.19 653.751 1004.79C653.751 1004.46 653.751 1004.14 653.751 1003.82C653.744 1003.22 653.738 1002.62 653.738 1002.03C653.738 1001.88 653.738 1001.73 653.738 1001.57C653.731 1000.8 653.731 1000.02 653.724 999.253C653.724 999.094 653.724 998.935 653.724 998.776C653.718 998.108 653.711 997.454 653.711 996.792C653.704 996.64 653.704 996.488 653.704 996.336C653.697 995.542 653.691 994.742 653.684 993.948C653.684 993.922 653.684 993.895 653.684 993.869C653.684 993.307 653.677 992.745 653.671 992.189C653.671 992.163 653.671 992.143 653.671 992.116C653.671 991.991 653.671 991.865 653.671 991.733C653.671 991.422 653.664 991.118 653.657 990.807C653.657 990.416 653.657 990.04 653.65 989.656C653.563 980.463 653.429 971.269 653.255 962.076C653.208 959.463 653.154 956.858 653.094 954.252C653.074 953.346 653.06 952.433 653.033 951.514C653.027 951.17 653.02 950.826 653.013 950.475C652.758 939.397 652.436 928.305 652.047 917.227C651.913 913.226 651.725 909.231 651.571 905.236C651.329 898.913 651.101 892.59 650.813 886.268C650.719 884.303 650.625 882.339 650.531 880.368C650.477 879.158 650.417 877.941 650.363 876.73C650.316 875.831 650.276 874.931 650.229 874.032V874.025C649.981 868.946 649.652 863.873 649.37 858.793C649.015 852.351 648.686 845.903 648.277 839.468C647.955 834.296 647.572 829.13 647.217 823.965C646.72 816.65 646.237 809.328 645.68 802.02C645.674 801.907 645.667 801.795 645.654 801.676C645.379 797.919 645.077 794.176 644.781 790.419C644.493 786.861 644.151 783.316 643.849 779.757C643.299 773.289 642.749 766.827 642.158 760.372C641.628 754.631 641.065 748.91 640.501 743.176C639.844 736.542 639.186 729.902 638.482 723.268C638.294 721.482 638.133 719.69 637.939 717.911C637.556 714.247 637.147 710.596 636.731 706.945C636.248 702.481 635.718 698.023 635.201 693.565C634.416 686.925 633.605 680.284 632.773 673.637C632.618 672.335 632.451 671.045 632.29 669.762C631.438 663.055 630.559 656.355 629.613 649.662C629.579 649.371 629.539 649.087 629.499 648.802C628.929 644.781 628.345 640.76 627.734 636.739C627.6 635.806 627.453 634.867 627.312 633.928C627.064 632.307 626.795 630.687 626.54 629.066C626.346 627.856 626.171 626.639 625.97 625.429C625.467 622.314 624.917 619.199 624.373 616.09C624.199 615.058 624.024 614.013 623.843 612.988C623.474 610.891 623.072 608.808 622.683 606.718C622.267 604.469 621.851 602.221 621.415 599.972C621.052 598.113 620.663 596.262 620.288 594.41C619.784 591.963 619.288 589.515 618.758 587.081C618.376 585.282 617.966 583.483 617.564 581.684C617.195 580.044 616.853 578.397 616.464 576.751C616.457 576.731 616.457 576.711 616.45 576.691C616.383 576.42 616.329 576.155 616.262 575.884C616.249 575.818 616.229 575.752 616.215 575.692C616.162 575.454 616.101 575.216 616.048 574.985C616.034 574.912 616.021 574.839 616.001 574.766C615.947 574.548 615.893 574.323 615.846 574.105C615.826 574.019 615.799 573.926 615.779 573.84C615.726 573.622 615.672 573.404 615.625 573.186C615.605 573.106 615.585 573.027 615.565 572.941C615.491 572.643 615.424 572.346 615.35 572.055C614.646 569.171 613.887 566.228 613.076 563.285C612.995 562.98 612.928 562.676 612.841 562.365C612.358 560.619 611.841 558.873 611.311 557.14C611.278 557.028 611.237 556.922 611.197 556.803C610.533 554.653 609.829 552.517 609.071 550.394C608.668 549.257 608.232 548.139 607.796 547.021C607.695 546.77 607.608 546.499 607.501 546.241C607.172 545.414 606.823 544.614 606.474 543.8C606.239 543.231 606.011 542.663 605.763 542.1C605.428 541.353 605.072 540.625 604.717 539.891C604.562 539.541 604.401 539.19 604.233 538.846L706.905 588.927L721.584 543.066L755.812 612.763L768.337 618.881L795.676 576.168L805.947 637.215L838.33 653.009L874.39 612.856L876.268 671.514L969.997 717.223L986.199 677.917L988.902 671.369L1015.74 739.492L1015.75 739.525L1067.84 764.929C982.274 452.33 763.594 453.838 639.951 482.952Z" fill="#F19865"/>
<path d="M639.951 482.918L715.955 447.5L688.603 407.685L765.278 424.51L777.917 418.624L760.924 370.978L815.849 400.939L848.507 385.72L838.967 332.921L886.781 367.889L981.315 323.827L960.122 286.908L956.593 280.757L1027.42 302.306L1027.46 302.319L1080 277.834C1075.76 276.035 1071.56 274.316 1067.38 272.629C1066.42 272.245 1065.45 271.849 1064.48 271.472C1060.38 269.838 1056.31 268.251 1052.27 266.723C1051.78 266.544 1051.31 266.372 1050.82 266.194C1047.11 264.811 1043.44 263.475 1039.8 262.186C1038.93 261.875 1038.07 261.571 1037.21 261.266C1033.26 259.891 1029.35 258.561 1025.47 257.285C1024.76 257.06 1024.06 256.842 1023.37 256.61C1019.9 255.486 1016.45 254.401 1013.03 253.363C1012.32 253.151 1011.62 252.933 1010.92 252.721C1007.1 251.577 1003.33 250.486 999.569 249.447C998.778 249.229 997.993 249.011 997.201 248.799C993.753 247.86 990.338 246.96 986.95 246.107C986.494 245.988 986.038 245.869 985.588 245.757C981.885 244.837 978.215 243.971 974.579 243.144C973.761 242.966 972.942 242.787 972.124 242.608C968.487 241.802 964.871 241.028 961.296 240.327C961.269 240.32 961.229 240.313 961.195 240.307C957.579 239.599 953.996 238.944 950.441 238.336C949.656 238.197 948.864 238.065 948.086 237.926C944.577 237.344 941.109 236.795 937.661 236.299C937.318 236.253 936.983 236.213 936.641 236.16C933.461 235.71 930.308 235.307 927.175 234.943C926.437 234.85 925.705 234.764 924.974 234.685C921.64 234.308 918.333 233.971 915.065 233.68C914.488 233.633 913.925 233.587 913.355 233.541C910.443 233.296 907.545 233.085 904.673 232.913C904.049 232.873 903.419 232.827 902.802 232.794C899.608 232.615 896.442 232.476 893.302 232.377C892.631 232.357 891.974 232.344 891.303 232.324C888.465 232.251 885.647 232.205 882.856 232.205C882.534 232.198 882.206 232.185 881.884 232.185C881.796 232.185 881.702 232.192 881.609 232.192C876.785 232.198 872.028 232.291 867.346 232.489C867.232 232.496 867.118 232.496 867.01 232.509C862.421 232.701 857.906 232.992 853.445 233.362C853.069 233.395 852.7 233.435 852.338 233.461C848.132 233.832 843.979 234.282 839.88 234.791C839.404 234.85 838.947 234.91 838.478 234.976C834.452 235.505 830.481 236.1 826.57 236.775C826.134 236.848 825.691 236.921 825.255 237C821.27 237.701 817.338 238.468 813.467 239.308C813.159 239.374 812.837 239.44 812.528 239.507C808.416 240.413 804.364 241.392 800.379 242.456C800.338 242.463 800.305 242.47 800.264 242.476C796.246 243.554 792.294 244.699 788.403 245.909C788.135 245.995 787.867 246.087 787.598 246.173C783.962 247.318 780.38 248.535 776.844 249.804C776.455 249.943 776.066 250.089 775.683 250.228C772.255 251.478 768.881 252.781 765.56 254.143C765.164 254.302 764.768 254.467 764.366 254.633C761.038 256.015 757.751 257.45 754.524 258.938C754.188 259.084 753.86 259.236 753.538 259.388C750.17 260.955 746.849 262.576 743.589 264.249C743.434 264.329 743.287 264.401 743.139 264.474C739.765 266.22 736.437 268.019 733.177 269.871C732.995 269.977 732.821 270.076 732.633 270.182C729.534 271.948 726.481 273.767 723.476 275.632C723.16 275.83 722.845 276.035 722.523 276.234C719.658 278.026 716.827 279.865 714.056 281.736C713.701 281.981 713.352 282.219 713.003 282.457C710.253 284.329 707.542 286.254 704.879 288.198C704.564 288.43 704.248 288.661 703.94 288.893C701.196 290.91 698.512 292.967 695.869 295.057C695.668 295.215 695.473 295.368 695.272 295.52C692.481 297.749 689.73 300.017 687.047 302.312C686.946 302.391 686.852 302.471 686.758 302.55C684.142 304.792 681.572 307.068 679.05 309.376C678.808 309.594 678.567 309.819 678.325 310.05C675.951 312.226 673.616 314.429 671.335 316.658C671.04 316.949 670.738 317.24 670.443 317.537C668.209 319.733 666.015 321.955 663.855 324.198C663.573 324.489 663.298 324.773 663.016 325.071C660.822 327.359 658.682 329.674 656.576 332.002C656.368 332.227 656.16 332.452 655.958 332.683C653.731 335.157 651.557 337.644 649.424 340.15C649.357 340.223 649.283 340.302 649.223 340.382C647.056 342.935 644.942 345.507 642.869 348.087C642.688 348.305 642.521 348.523 642.346 348.742C640.421 351.149 638.536 353.557 636.697 355.99C636.463 356.301 636.228 356.619 635.986 356.93C634.208 359.278 632.464 361.639 630.76 364.007C630.525 364.337 630.284 364.675 630.042 364.999C628.338 367.393 626.674 369.774 625.037 372.168C624.843 372.459 624.642 372.737 624.447 373.028C622.75 375.521 621.099 378.015 619.489 380.508C619.375 380.674 619.261 380.846 619.147 381.024C617.463 383.63 615.826 386.229 614.223 388.828C614.095 389.034 613.975 389.239 613.841 389.45C612.344 391.891 610.882 394.338 609.453 396.765C609.265 397.096 609.077 397.407 608.889 397.731C607.534 400.059 606.206 402.38 604.911 404.689C604.71 405.059 604.509 405.416 604.307 405.78C603.033 408.068 601.791 410.35 600.584 412.612C600.396 412.963 600.215 413.307 600.027 413.65C598.799 415.972 597.605 418.267 596.438 420.555C596.351 420.727 596.257 420.906 596.163 421.078V421.091C628.09 298.675 627.929 95.4295 326.685 0.17622L349.99 52.6575L350.029 52.6772L417.785 82.2943L411.032 84.6423L370.449 98.7563L412.379 193.203L471.723 197.799L429.355 231.431L443.837 264.051L505.22 277.027L460.659 301.948L466.269 314.574L535.289 351.539L488.138 363.848L533.989 467.104C533.889 466.985 533.782 466.859 533.682 466.74C532.417 465.206 531.114 463.652 529.783 462.084C529.565 461.826 529.35 461.568 529.127 461.31C527.785 459.736 526.41 458.135 525.003 456.522C524.772 456.264 524.546 455.999 524.314 455.735C522.891 454.114 521.434 452.474 519.948 450.827C519.72 450.569 519.494 450.318 519.263 450.06C517.751 448.393 516.208 446.713 514.633 445.02C514.407 444.775 514.19 444.537 513.965 444.299C512.351 442.573 510.702 440.834 509.025 439.087C508.823 438.876 508.629 438.671 508.43 438.466C506.706 436.68 504.942 434.888 503.149 433.089C502.947 432.884 502.748 432.685 502.544 432.48C500.709 430.642 498.841 428.803 496.93 426.958C496.718 426.759 496.501 426.548 496.283 426.342C494.431 424.557 492.544 422.764 490.625 420.979C490.36 420.741 490.096 420.489 489.831 420.244C487.963 418.518 486.071 416.792 484.142 415.066C483.817 414.775 483.489 414.484 483.165 414.193C481.277 412.513 479.362 410.84 477.42 409.166C477.046 408.849 476.665 408.525 476.288 408.207C474.369 406.574 472.422 404.94 470.452 403.313C470.035 402.969 469.618 402.632 469.202 402.294C467.237 400.687 465.25 399.093 463.229 397.506C462.787 397.162 462.344 396.811 461.898 396.461C459.883 394.893 457.844 393.333 455.781 391.785C455.31 391.434 454.833 391.077 454.358 390.727C452.285 389.192 450.186 387.658 448.064 386.143C447.582 385.799 447.102 385.462 446.62 385.125C444.474 383.61 442.303 382.115 440.105 380.627C439.62 380.297 439.133 379.972 438.645 379.648C436.418 378.154 434.162 376.685 431.879 375.23C431.407 374.926 430.938 374.628 430.461 374.324C428.131 372.856 425.77 371.407 423.385 369.979C422.942 369.708 422.505 369.443 422.062 369.179C419.609 367.724 417.125 366.295 414.62 364.893C414.224 364.661 413.833 364.443 413.437 364.225C410.843 362.783 408.217 361.368 405.565 359.979C405.24 359.807 404.915 359.641 404.588 359.469C401.812 358.028 399.003 356.625 396.165 355.256C395.85 355.104 395.536 354.952 395.222 354.807C392.37 353.438 389.485 352.102 386.571 350.805C386.257 350.673 385.937 350.534 385.622 350.402C382.79 349.152 379.93 347.941 377.04 346.777C376.654 346.619 376.264 346.466 375.882 346.314C373.038 345.177 370.171 344.072 367.273 343.014C366.84 342.855 366.408 342.71 365.973 342.551C363.103 341.519 360.204 340.514 357.28 339.562C356.811 339.409 356.34 339.257 355.868 339.105C352.956 338.173 350.021 337.273 347.055 336.427C346.562 336.288 346.069 336.149 345.577 336.01C342.61 335.177 339.62 334.383 336.601 333.636C336.095 333.51 335.592 333.384 335.086 333.265C332.052 332.531 328.988 331.843 325.898 331.202C325.401 331.096 324.905 330.997 324.407 330.891C321.283 330.269 318.134 329.687 314.957 329.158C314.477 329.079 314 328.999 313.519 328.913C310.298 328.397 307.048 327.934 303.775 327.518C303.327 327.458 302.881 327.405 302.433 327.352C299.095 326.942 295.727 326.598 292.331 326.307C291.935 326.274 291.542 326.241 291.144 326.202C287.664 325.924 284.152 325.706 280.609 325.553C280.291 325.54 279.979 325.52 279.663 325.507C276.009 325.362 272.327 325.289 268.617 325.282C268.467 325.282 268.321 325.269 268.169 325.269C268.079 325.269 267.985 325.276 267.891 325.276C265.697 325.276 263.496 325.309 261.277 325.355C260.739 325.368 260.197 325.395 259.656 325.414C257.956 325.461 256.245 325.52 254.531 325.606C253.797 325.639 253.06 325.679 252.322 325.719C250.734 325.805 249.14 325.911 247.544 326.023C246.826 326.076 246.105 326.122 245.385 326.175C243.498 326.327 241.6 326.499 239.696 326.684C239.305 326.717 238.917 326.75 238.526 326.79C236.207 327.028 233.875 327.293 231.537 327.584C231.021 327.65 230.502 327.729 229.986 327.795C228.162 328.027 226.331 328.285 224.493 328.563C223.772 328.669 223.047 328.781 222.323 328.893C220.612 329.158 218.896 329.442 217.171 329.747C216.479 329.866 215.788 329.985 215.093 330.104C213.012 330.487 210.929 330.878 208.83 331.301C208.531 331.36 208.235 331.413 207.936 331.479C205.504 331.975 203.059 332.505 200.609 333.067C200.092 333.179 199.568 333.311 199.053 333.431C197.137 333.88 195.21 334.343 193.282 334.833C192.55 335.011 191.816 335.203 191.086 335.395C189.285 335.864 187.477 336.347 185.661 336.85C184.966 337.048 184.272 337.234 183.572 337.432C181.313 338.073 179.046 338.741 176.769 339.436C176.565 339.502 176.36 339.555 176.156 339.621C173.624 340.402 171.077 341.222 168.522 342.068C167.967 342.253 167.411 342.452 166.858 342.637C164.887 343.305 162.911 343.993 160.927 344.701C160.165 344.972 159.4 345.243 158.634 345.527C156.771 346.202 154.895 346.91 153.021 347.624C152.3 347.902 151.582 348.173 150.857 348.451C148.477 349.377 146.087 350.336 143.689 351.328C143.516 351.394 143.345 351.46 143.175 351.526C140.557 352.617 137.931 353.735 135.295 354.893C134.682 355.157 134.071 355.442 133.461 355.706C131.461 356.592 129.454 357.505 127.441 358.438C126.631 358.815 125.821 359.192 125.012 359.575C123.096 360.481 121.176 361.401 119.251 362.346C118.494 362.71 117.739 363.081 116.98 363.451C114.482 364.688 111.972 365.964 109.453 367.267C109.32 367.34 109.186 367.406 109.047 367.479C106.359 368.874 103.662 370.323 100.952 371.804C100.26 372.181 99.5632 372.572 98.8688 372.962C96.8609 374.066 94.8509 375.191 92.8329 376.348C91.9682 376.838 91.1034 377.34 90.2359 377.836C88.2864 378.974 86.3314 380.125 84.3765 381.289C83.5721 381.771 82.7751 382.241 81.9707 382.724C79.3711 384.298 76.7687 385.892 74.1563 387.539C74.0329 387.612 73.9094 387.691 73.7867 387.77C71.0347 389.503 68.27 391.282 65.4973 393.101C64.7191 393.604 63.9355 394.139 63.1519 394.655C61.1553 395.978 59.1528 397.321 57.1428 398.683C56.2049 399.325 55.2637 399.973 54.3204 400.621C52.3628 401.97 50.3998 403.339 48.4294 404.735C47.5647 405.343 46.7026 405.945 45.8378 406.567C43.1463 408.492 40.4466 410.443 37.7396 412.447C37.6323 412.526 37.5276 412.599 37.4203 412.678C34.6033 414.762 31.7782 416.904 28.9397 419.067C28.0911 419.722 27.231 420.397 26.3797 421.051C24.367 422.612 22.3517 424.186 20.331 425.787C19.3428 426.567 18.3553 427.354 17.3671 428.141C15.3571 429.755 13.3391 431.389 11.3191 433.042C10.4302 433.77 9.54728 434.484 8.65904 435.218C5.78432 437.599 2.89619 440.007 0 442.48L57.5856 450.179L57.6198 450.166L118.549 408.545L117.068 415.456L108.161 456.965L211.786 470.834L246.658 423.274L253.731 476.449L289.524 481.238L332.715 436.336L331.1 486.813L344.955 488.659L412.9 449.809L399.014 495.907L507.838 510.471C447.611 514.248 346.193 531.457 270.252 599.904C269.848 600.268 269.445 600.625 269.041 600.989C212.061 652.941 169.749 734.067 170.605 860.525C170.763 883.568 172.351 908.105 175.545 934.25L214.21 891.478V891.438L213.254 818.368L218.24 823.447H218.243L248.176 853.924L317.756 776.952L297.239 721.871L345.92 745.8L369.951 719.219L356.319 658.814L397.876 688.345L407.177 678.054L412.468 600.791L443.483 637.908L532.309 539.645C531.72 530.088 533.418 521.054 540.527 514.843C540.829 514.579 541.09 514.307 541.412 514.049C544.854 511.324 549.087 509.764 553.468 509.208C554.743 509.043 555.984 508.924 557.205 508.838C558.419 508.752 559.607 508.719 560.767 508.712C560.908 508.712 561.056 508.692 561.197 508.692C561.398 508.692 561.579 508.719 561.78 508.719C561.814 508.719 561.834 508.725 561.861 508.725C562.652 508.738 563.41 508.785 564.182 508.831C565.054 508.877 565.926 508.93 566.758 509.023C567.516 509.109 568.248 509.228 568.979 509.34C569.784 509.473 570.575 509.598 571.347 509.764C572.065 509.929 572.769 510.107 573.46 510.293C574.198 510.491 574.923 510.696 575.634 510.934C576.312 511.159 576.976 511.404 577.633 511.662C578.311 511.926 578.982 512.197 579.632 512.488C580.27 512.779 580.9 513.084 581.518 513.408C582.141 513.732 582.759 514.063 583.356 514.413C583.96 514.77 584.55 515.134 585.134 515.518C585.704 515.888 586.261 516.278 586.817 516.682C587.381 517.092 587.931 517.508 588.475 517.945C589.011 518.375 589.514 518.818 590.031 519.268C590.554 519.731 591.071 520.2 591.581 520.69C592.064 521.159 592.54 521.649 593.003 522.138C593.493 522.661 593.982 523.17 594.452 523.706C594.895 524.222 595.324 524.751 595.754 525.28C596.21 525.842 596.666 526.398 597.102 526.98C597.511 527.529 597.9 528.091 598.296 528.653C598.712 529.255 599.141 529.85 599.544 530.478C599.913 531.054 600.275 531.642 600.631 532.231C601.02 532.879 601.416 533.514 601.791 534.175C602.127 534.764 602.442 535.373 602.764 535.981C603.133 536.662 603.509 537.344 603.858 538.045C603.985 538.303 604.106 538.554 604.233 538.812L706.905 588.892L721.584 543.031L755.812 612.729L768.337 618.847L795.676 576.134L805.947 637.18L838.33 652.974L874.39 612.821L876.268 671.48L969.997 717.189L986.199 677.882L988.902 671.334L1015.74 739.458L1015.75 739.491L1067.84 764.895C982.274 452.295 763.594 453.803 639.951 482.918Z" fill="#1F6C39"/>
<path d="M326.68 0.22183L349.985 52.7031L350.024 52.7228L417.78 82.3399L411.027 84.6878L370.444 98.8019L412.374 193.248L471.718 197.845L429.35 231.477L443.832 264.096L505.215 277.073L460.654 301.994L466.264 314.62L535.284 351.585L488.133 363.893L533.984 467.149C534.083 467.275 534.178 467.388 534.28 467.513C535.7 469.239 537.079 470.939 538.415 472.613C538.563 472.791 538.717 472.976 538.858 473.161C540.294 474.954 541.689 476.72 543.031 478.446C543.078 478.499 543.118 478.565 543.165 478.618C544.493 480.331 545.775 482.004 547.009 483.638C547.137 483.803 547.251 483.969 547.371 484.121C548.532 485.662 549.652 487.156 550.719 488.625C550.853 488.797 550.981 488.969 551.108 489.141C552.195 490.629 553.235 492.071 554.241 493.46C554.308 493.559 554.375 493.658 554.443 493.751C555.496 495.225 556.509 496.661 557.468 498.036C557.502 498.083 557.529 498.129 557.562 498.175C558.495 499.511 559.367 500.788 560.205 502.011C560.286 502.13 560.36 502.236 560.44 502.355C561.232 503.526 561.983 504.644 562.688 505.708C562.721 505.755 562.761 505.814 562.795 505.867C562.835 505.735 562.875 505.589 562.909 505.464C563.07 504.902 563.238 504.333 563.405 503.744C563.466 503.526 563.526 503.308 563.6 503.083C563.828 502.302 564.056 501.509 564.298 500.689C564.304 500.669 564.311 500.655 564.311 500.649C564.318 500.629 564.318 500.616 564.331 500.603C564.338 500.556 564.358 500.517 564.365 500.47C564.66 499.491 564.969 498.473 565.291 497.428C565.344 497.236 565.405 497.051 565.458 496.859C565.787 495.801 566.123 494.716 566.485 493.605C566.559 493.367 566.632 493.129 566.706 492.891C567.068 491.76 567.437 490.602 567.833 489.418C567.894 489.227 567.954 489.035 568.021 488.843C568.377 487.758 568.746 486.647 569.128 485.516C569.209 485.278 569.282 485.04 569.37 484.809C569.779 483.592 570.208 482.348 570.644 481.092C570.758 480.761 570.879 480.424 570.993 480.093C571.436 478.843 571.879 477.566 572.355 476.283C572.469 475.946 572.59 475.615 572.717 475.278C573.147 474.107 573.576 472.91 574.025 471.7C574.126 471.435 574.22 471.177 574.321 470.913C574.824 469.57 575.34 468.201 575.87 466.825C576.031 466.409 576.192 465.992 576.36 465.569C576.877 464.213 577.42 462.837 577.97 461.455C578.145 461.018 578.319 460.582 578.494 460.152C579.01 458.869 579.533 457.573 580.07 456.263C580.231 455.866 580.399 455.469 580.56 455.072C581.11 453.743 581.68 452.394 582.257 451.038C582.452 450.575 582.646 450.105 582.848 449.636C583.478 448.168 584.129 446.693 584.78 445.191C584.988 444.722 585.196 444.252 585.404 443.789C586.081 442.255 586.772 440.72 587.477 439.166C587.631 438.822 587.799 438.478 587.953 438.128C588.59 436.745 589.234 435.35 589.905 433.941C590.113 433.491 590.321 433.055 590.529 432.605C591.28 431.031 592.039 429.45 592.817 427.856C593.065 427.354 593.307 426.851 593.555 426.348C594.353 424.735 595.165 423.101 595.997 421.461C596.05 421.355 596.104 421.249 596.158 421.137C628.085 298.72 627.924 95.4751 326.68 0.22183Z" fill="#50B837"/>
<path d="M534.274 467.513C535.694 469.239 537.073 470.939 538.409 472.613C538.557 472.791 538.711 472.976 538.852 473.161C540.287 474.954 541.683 476.72 543.025 478.446C543.072 478.499 543.112 478.565 543.159 478.618C544.487 480.331 545.768 482.004 547.003 483.638C547.13 483.803 547.244 483.969 547.365 484.121C548.526 485.662 549.646 487.156 550.713 488.625C550.847 488.797 550.974 488.969 551.102 489.141C552.189 490.629 553.229 492.071 554.235 493.46C554.302 493.559 554.369 493.658 554.436 493.751C555.49 495.225 556.503 496.661 557.462 498.036C557.495 498.083 557.522 498.129 557.556 498.175C558.488 499.511 559.36 500.788 560.199 502.011C560.28 502.13 560.353 502.236 560.434 502.355C561.226 503.526 561.977 504.644 562.681 505.708C562.715 505.755 562.755 505.814 562.789 505.867C562.829 505.735 562.869 505.589 562.903 505.464C563.064 504.902 563.231 504.333 563.399 503.744C563.46 503.526 563.52 503.308 563.594 503.083C563.822 502.302 564.05 501.509 564.291 500.689C581.043 399.893 570.229 293.488 523.681 202.369C498.691 153.452 460.241 107.578 411.02 84.6878L370.438 98.8019L412.367 193.248L471.711 197.845L429.344 231.477L443.826 264.096L505.208 277.073L460.647 301.994L466.258 314.62L535.277 351.585L488.127 363.893L533.978 467.149C534.077 467.275 534.172 467.388 534.274 467.513Z" fill="#8ED135"/>
<path d="M540.552 514.843L533.264 513.871L507.862 510.471C447.635 514.248 346.217 531.457 270.276 599.904C269.873 600.268 269.469 600.625 269.066 600.989C212.086 652.941 169.773 734.067 170.63 860.525C170.788 883.568 172.376 908.105 175.57 934.25L214.234 891.478V891.438L213.278 818.368L218.265 823.447H218.268L248.2 853.924L317.781 776.952L297.264 721.871L345.945 745.8L369.976 719.219L356.343 658.814L397.901 688.345L407.202 678.054L412.493 600.791L443.507 637.908L532.334 539.645C531.744 530.088 533.442 521.054 540.552 514.843Z" fill="#8ED135"/>
<path d="M533.264 513.871L507.862 510.471C447.635 514.248 346.217 531.457 270.276 599.904C269.873 600.268 269.469 600.625 269.066 600.989C212.086 652.941 169.773 734.067 170.63 860.525C170.788 883.568 172.376 908.105 175.57 934.25L214.234 891.478V891.438L213.278 818.368L218.265 823.447C218.837 769.795 245.09 716.21 279.763 673.418C343.371 594.931 435.082 541.312 533.264 513.871Z" fill="#50B837"/>
<path d="M533.258 513.942L540.545 514.914C540.847 514.65 541.109 514.378 541.431 514.12C544.873 511.395 549.106 509.835 553.487 509.279C554.761 509.114 556.002 508.995 557.223 508.909C558.438 508.823 559.625 508.79 560.786 508.783C561.477 508.485 562.195 508.181 562.953 507.864C562.698 507.969 562.429 508.075 562.175 508.188C562.242 507.969 562.302 507.751 562.362 507.526C482.924 438.576 383.086 390.407 277.65 381.962C268.617 381.241 259.458 380.857 250.273 380.857C203.153 380.85 155.115 390.831 117.087 415.527L108.18 457.036L211.804 470.905L246.677 423.345L253.75 476.52L289.543 481.309L332.733 436.407L331.119 486.884L344.974 488.73L412.919 449.88L399.032 495.978L507.856 510.542L533.258 513.942Z" fill="#449135"/>
<path d="M796.772 302.704C698.682 342.196 618.15 417.998 563.52 507.563C563.48 507.583 563.447 507.596 563.406 507.609C578.112 501.419 605.303 491.094 639.954 482.94L715.957 447.522L688.606 407.706L765.281 424.532L777.92 418.646L760.926 370.999L815.851 400.96L848.51 385.742L838.97 332.943L886.783 367.911L981.317 323.849L960.124 286.93C942.815 282.095 924.722 279.919 906.387 279.919C869.274 279.919 831.194 288.848 796.772 302.704Z" fill="#449135"/>
<path d="M639.942 482.969C605.291 491.123 578.1 501.448 563.394 507.638C563.233 507.711 563.086 507.771 562.925 507.843C562.167 508.161 561.449 508.465 560.758 508.763C560.899 508.763 561.046 508.743 561.187 508.743C561.388 508.743 561.57 508.769 561.771 508.769C561.804 508.769 561.825 508.776 561.851 508.776C562.643 508.789 563.401 508.835 564.173 508.882C565.045 508.928 565.917 508.981 566.749 509.074C567.507 509.16 568.238 509.279 568.969 509.391C569.774 509.523 570.566 509.649 571.338 509.814C572.055 509.98 572.76 510.158 573.451 510.343C574.189 510.542 574.913 510.747 575.625 510.985C576.302 511.21 576.966 511.455 577.624 511.712C578.301 511.977 578.972 512.248 579.623 512.539C580.26 512.83 580.891 513.135 581.508 513.459C582.132 513.783 582.749 514.113 583.346 514.464C583.95 514.821 584.54 515.185 585.124 515.568C585.694 515.939 586.251 516.329 586.808 516.732C587.372 517.143 587.922 517.559 588.465 517.996C589.002 518.426 589.505 518.869 590.022 519.318C590.545 519.781 591.061 520.251 591.571 520.74C592.054 521.21 592.531 521.7 592.994 522.189C593.483 522.711 593.973 523.221 594.443 523.756C594.885 524.272 595.315 524.801 595.744 525.331C596.2 525.893 596.657 526.448 597.093 527.03C597.502 527.579 597.891 528.141 598.287 528.704C598.703 529.305 599.132 529.901 599.535 530.529C599.904 531.104 600.266 531.693 600.621 532.282C601.011 532.93 601.406 533.565 601.782 534.226C602.118 534.815 602.433 535.423 602.755 536.032C603.124 536.713 603.5 537.394 603.848 538.095C603.976 538.353 604.097 538.605 604.224 538.863L706.896 588.943L721.574 543.082L755.803 612.779L768.328 618.897L795.666 576.185L805.937 637.231L838.321 653.025L874.381 612.872L876.259 671.531L969.988 717.239L986.189 677.933L988.893 671.385L1015.73 739.508L1015.74 739.541L1067.84 764.945C982.265 452.346 763.585 453.854 639.942 482.969Z" fill="#8ED135"/>
<path d="M563.394 507.638C563.233 507.711 563.086 507.771 562.925 507.843C562.167 508.161 561.449 508.465 560.758 508.763C560.899 508.763 561.046 508.743 561.187 508.743C561.388 508.743 561.57 508.769 561.771 508.769C667.73 494.768 779.122 509.748 872.227 561.482C920.624 588.381 965.305 628.395 986.189 677.933L988.893 671.385L1015.73 739.508L1015.74 739.541L1067.84 764.945C982.265 452.346 763.585 453.854 639.942 482.969C605.291 491.123 578.1 501.448 563.394 507.638Z" fill="#50B837"/>
<path d="M576.7 966.13C588.89 963.915 601.187 962.513 613.538 961.812C613.545 961.805 613.545 961.798 613.545 961.792C618.261 961.527 622.978 961.368 627.707 961.315C628.506 961.309 629.291 961.302 630.082 961.302C637.824 961.302 645.532 961.706 653.248 962.116C653.201 959.503 653.147 956.897 653.087 954.292C653.066 953.385 653.053 952.473 653.026 951.553C653.02 951.209 653.013 950.866 653.006 950.515C644.627 949.424 636.147 948.954 627.707 948.736C625.426 948.676 623.139 948.65 620.851 948.65C619.174 948.65 617.483 948.656 615.799 948.696C615.792 948.703 615.792 948.716 615.792 948.729C601.758 948.987 587.736 950.29 573.889 952.559C556.111 955.469 538.588 960.026 521.667 966.15C521.068 966.375 520.459 966.587 519.859 966.818C518.518 972.592 517.162 978.34 515.766 984.094C519.602 982.487 523.473 980.979 527.378 979.543C543.384 973.65 559.901 969.166 576.7 966.13Z" fill="#BF602F"/>
<path d="M584.306 886.61C597.22 884.692 610.303 883.991 623.365 884.229C623.365 884.216 623.365 884.196 623.365 884.176C626.296 884.229 629.228 884.335 632.153 884.487C638.379 884.804 644.591 885.4 650.777 886.226C650.683 884.262 650.589 882.298 650.495 880.327C650.441 879.116 650.381 877.899 650.327 876.689C650.28 875.79 650.24 874.89 650.193 873.991V873.984C644.209 872.999 638.178 872.278 632.153 871.742C629.503 871.51 626.86 871.325 624.21 871.193C624.21 871.193 624.21 871.206 624.203 871.206C609.954 870.485 595.624 871.153 581.488 873.038C566.165 875.089 551.03 878.66 536.409 883.68C535.51 889.057 534.579 894.441 533.602 899.805C535.024 899.262 536.44 898.727 537.874 898.211C552.902 892.767 568.48 888.958 584.306 886.61Z" fill="#BF602F"/>
<path d="M566.76 561.432C570.363 560.778 574.006 560.321 577.676 560.03C577.676 560.024 577.669 560.017 577.662 560.01C580.842 559.752 584.035 559.62 587.215 559.62C592.569 559.62 597.909 559.984 603.155 560.665C606.409 561.088 609.623 561.67 612.816 562.378C612.333 560.632 611.817 558.886 611.287 557.153C611.253 557.041 611.213 556.935 611.172 556.816C610.508 554.666 609.804 552.523 609.046 550.407C607.845 550.142 606.637 549.911 605.43 549.699C597.923 548.357 590.389 547.682 582.841 547.682C579.628 547.682 576.414 547.801 573.194 548.046C573.201 548.052 573.201 548.059 573.201 548.066C570.215 548.291 567.23 548.601 564.244 549.038C554.208 550.506 544.433 553.271 535.148 557.14C536.255 561.922 537.463 566.459 538.308 570.414C547.312 566.261 556.872 563.231 566.76 561.432Z" fill="#BF602F"/>
<path d="M580.549 1117.22C580.187 1117.22 579.825 1117.22 579.469 1117.22C575.417 1117.24 571.372 1117.32 567.319 1117.47V1117.47C537.311 1118.57 507.417 1123.33 478.562 1131.48C476.562 1132.03 474.578 1132.61 472.603 1133.22C470.776 1138.8 468.923 1144.37 467.039 1149.92C469.966 1148.95 472.904 1148.01 475.852 1147.1C491.368 1142.36 507.182 1138.62 523.183 1135.91C535.775 1133.79 548.488 1132.34 561.241 1131.49C561.241 1131.48 561.248 1131.48 561.248 1131.47C570.164 1130.87 579.1 1130.58 588.043 1130.58C599.146 1130.58 610.249 1131.03 621.298 1131.91C630.805 1132.66 640.304 1133.75 649.757 1135.07L650.267 1135.14C650.522 1131.59 650.743 1128.02 650.951 1124.46C643.92 1122.94 636.829 1121.68 629.691 1120.7C613.382 1118.45 597.019 1117.22 580.549 1117.22Z" fill="#BF602F"/>
<path d="M635.269 1031.8C624.662 1030.64 614.009 1030.03 603.355 1030.03C601.504 1030.03 599.652 1030.05 597.8 1030.08C597.794 1030.1 597.794 1030.11 597.794 1030.12C594.305 1030.19 590.817 1030.29 587.335 1030.49C557.112 1032.22 527.191 1038.25 498.768 1048.51C497.161 1054.22 495.531 1059.92 493.867 1065.63C498.049 1063.95 502.277 1062.36 506.543 1060.86C524.895 1054.46 543.815 1049.87 563.035 1046.83C573.233 1045.2 583.544 1044.14 593.883 1043.56C593.883 1043.56 593.889 1043.56 593.889 1043.55C600.283 1043.19 606.703 1043.01 613.097 1043.01C615.8 1043.01 618.497 1043.05 621.187 1043.11C630.586 1043.32 639.959 1043.96 649.29 1045C650.713 1045.15 652.148 1045.35 653.591 1045.56C653.644 1041.81 653.671 1038.05 653.698 1034.32C647.593 1033.26 641.428 1032.46 635.269 1031.8Z" fill="#BF602F"/>
<path d="M624.294 788.298C624.294 788.312 624.294 788.325 624.294 788.325C611.83 787.756 599.358 788.477 586.994 790.395C573.361 792.505 560.017 796.123 547.197 801.136C546.727 806.182 546.231 811.209 545.688 816.242C546.258 815.997 546.841 815.74 547.418 815.482C560.856 809.595 575.119 805.415 589.603 802.895C601.189 800.865 613.044 799.998 624.838 800.177C624.838 800.157 624.838 800.137 624.838 800.118C627.488 800.157 630.138 800.256 632.781 800.409C637.088 800.647 641.368 801.07 645.635 801.639C645.36 797.882 645.058 794.139 644.763 790.382C641.073 789.813 637.37 789.35 633.64 788.98C630.52 788.675 627.414 788.444 624.294 788.298Z" fill="#BF602F"/>
<path d="M615.303 704.524C607.93 704.067 600.618 703.968 593.54 704.12C579.317 704.438 565.195 706.157 551.348 709.193C551.375 713.426 551.362 717.666 551.328 721.898C565.168 718.572 579.344 716.574 593.54 715.853C601.376 715.45 609.232 715.523 617.068 715.926C617.068 715.913 617.068 715.893 617.068 715.88C621.73 716.118 626.393 716.488 631.042 716.984C633.363 717.242 635.678 717.546 637.972 717.897C637.59 714.233 637.181 710.582 636.765 706.931C629.66 705.727 622.455 704.954 615.303 704.51V704.524Z" fill="#BF602F"/>
<path d="M597.839 623.571C597.839 623.591 597.852 623.618 597.859 623.638C592.378 623.717 586.903 623.968 581.463 624.524C569.863 625.714 558.378 628.095 547.234 631.515C547.476 633.896 547.697 636.27 547.919 638.651C548.133 640.893 548.328 643.149 548.516 645.391C559.8 641.601 571.413 638.988 583.22 637.315C589.117 636.482 595.068 635.999 601.032 635.787C601.026 635.781 601.026 635.774 601.026 635.761C603.159 635.695 605.299 635.648 607.446 635.648C612.068 635.648 616.697 635.827 621.313 636.151C623.466 636.297 625.613 636.502 627.753 636.733C627.619 635.801 627.472 634.861 627.331 633.922C627.082 632.302 626.814 630.681 626.559 629.061C626.365 627.851 626.177 626.634 625.982 625.417C624.734 625.238 623.473 625.073 622.212 624.907C614.953 624.001 607.64 623.552 600.321 623.552C599.489 623.552 598.664 623.565 597.839 623.571Z" fill="#BF602F"/>
<path d="M653.768 1013.05C653.768 1012.95 653.768 1012.83 653.768 1012.73C653.768 1012.2 653.768 1011.66 653.768 1011.12C653.768 1010.94 653.768 1010.75 653.768 1010.57C653.761 1009.67 653.754 1008.77 653.754 1007.88C653.754 1007.63 653.754 1007.39 653.748 1007.14C653.748 1006.76 653.748 1006.38 653.748 1006C653.741 1005.59 653.741 1005.2 653.741 1004.79C653.741 1004.46 653.741 1004.14 653.741 1003.82C653.734 1003.22 653.727 1002.62 653.727 1002.03C653.727 1001.88 653.727 1001.73 653.727 1001.58C653.721 1000.8 653.721 1000.02 653.714 999.256C653.714 999.097 653.714 998.939 653.714 998.78C653.707 998.112 653.701 997.457 653.701 996.796C653.694 996.644 653.694 996.491 653.694 996.339C653.687 995.546 653.68 994.745 653.674 993.952C653.674 993.925 653.674 993.899 653.674 993.872C653.674 993.31 653.667 992.748 653.66 992.192C653.66 992.166 653.66 992.146 653.66 992.12C653.66 991.994 653.66 991.868 653.66 991.736C653.66 991.425 653.654 991.121 653.647 990.81C653.647 990.42 653.647 990.043 653.64 989.659C653.553 980.466 653.419 971.273 653.244 962.079C653.197 959.467 653.144 956.861 653.083 954.255C653.063 953.349 653.05 952.436 653.023 951.517C653.016 951.173 653.01 950.829 653.003 950.479C652.748 939.4 652.426 928.309 652.037 917.231C651.903 913.229 651.715 909.234 651.56 905.24C651.319 898.917 651.091 892.594 650.802 886.271C650.708 884.307 650.615 882.342 650.521 880.371C650.467 879.161 650.407 877.944 650.353 876.734C650.306 875.834 650.266 874.935 650.219 874.035V874.029C649.97 868.949 649.642 863.876 649.36 858.797C649.004 852.355 648.676 845.906 648.266 839.471C647.944 834.299 647.562 829.133 647.206 823.968C646.71 816.653 646.227 809.331 645.67 802.023C645.663 801.911 645.657 801.798 645.643 801.679C645.368 797.923 645.066 794.179 644.771 790.422C644.483 786.864 644.141 783.319 643.839 779.761C643.289 773.292 642.738 766.831 642.148 760.375C641.618 754.635 641.054 748.914 640.491 743.179C639.833 736.546 639.176 729.905 638.472 723.271C638.284 721.486 638.123 719.693 637.928 717.914C637.546 714.25 637.137 710.599 636.721 706.948C636.238 702.484 635.708 698.026 635.191 693.568C634.406 686.928 633.594 680.288 632.762 673.641C632.608 672.338 632.44 671.048 632.279 669.765C631.427 663.059 630.549 656.359 629.603 649.665C629.569 649.374 629.529 649.09 629.489 648.806C628.918 644.784 628.335 640.763 627.724 636.742C627.59 635.809 627.442 634.87 627.301 633.931C627.053 632.311 626.785 630.69 626.53 629.07C626.335 627.859 626.148 626.642 625.953 625.426C625.443 622.317 624.906 619.202 624.363 616.093C624.189 615.062 624.014 614.017 623.833 612.991C623.464 610.895 623.062 608.811 622.672 606.721C622.256 604.473 621.841 602.224 621.404 599.975C621.042 598.117 620.653 596.265 620.277 594.413C619.774 591.966 619.278 589.519 618.748 587.085C618.365 585.286 617.956 583.487 617.554 581.688C617.185 580.048 616.842 578.401 616.453 576.754C616.447 576.734 616.447 576.714 616.44 576.694C616.373 576.423 616.319 576.159 616.252 575.887C616.239 575.821 616.219 575.755 616.205 575.696C616.151 575.458 616.091 575.219 616.037 574.988C616.024 574.915 616.011 574.842 615.99 574.77C615.937 574.551 615.883 574.327 615.836 574.108C615.816 574.022 615.789 573.93 615.769 573.844C615.715 573.626 615.662 573.407 615.615 573.189C615.595 573.11 615.575 573.03 615.554 572.944C615.481 572.647 615.414 572.349 615.34 572.058C614.635 569.174 613.877 566.231 613.065 563.288C612.985 562.984 612.918 562.68 612.831 562.369C612.348 560.623 611.831 558.877 611.301 557.144C611.267 557.031 611.227 556.925 611.187 556.806C610.523 554.657 609.818 552.514 609.06 550.398C608.651 549.26 608.222 548.142 607.786 547.024C607.685 546.773 607.598 546.502 607.49 546.244C607.162 545.417 606.813 544.617 606.464 543.803C606.229 543.235 606.001 542.666 605.753 542.104C605.417 541.356 605.062 540.629 604.706 539.895C604.552 539.544 604.391 539.194 604.223 538.85C604.096 538.592 603.975 538.34 603.848 538.082C603.499 537.381 603.123 536.7 602.754 536.019C602.432 535.41 602.117 534.802 601.781 534.213C601.406 533.552 601.01 532.917 600.621 532.269C600.265 531.68 599.903 531.092 599.534 530.516C599.131 529.888 598.702 529.293 598.286 528.691C597.89 528.129 597.501 527.566 597.092 527.017C596.656 526.435 596.199 525.88 595.743 525.318C595.314 524.789 594.885 524.259 594.442 523.744C593.972 523.208 593.482 522.699 592.993 522.176C592.53 521.687 592.054 521.197 591.57 520.728C591.061 520.238 590.544 519.769 590.021 519.306C589.504 518.856 589.001 518.413 588.464 517.983C587.928 517.546 587.371 517.13 586.807 516.72C586.25 516.316 585.694 515.926 585.123 515.555C584.54 515.172 583.949 514.808 583.345 514.451C582.748 514.1 582.131 513.77 581.507 513.446C580.89 513.122 580.259 512.817 579.622 512.526C578.971 512.235 578.3 511.964 577.623 511.7C576.965 511.442 576.301 511.197 575.624 510.972C574.913 510.734 574.188 510.529 573.45 510.331C572.759 510.145 572.055 509.967 571.337 509.801C570.565 509.636 569.774 509.51 568.969 509.378C568.237 509.266 567.506 509.147 566.748 509.061C565.916 508.968 565.044 508.915 564.172 508.869C563.407 508.823 562.642 508.776 561.851 508.763C561.824 508.763 561.804 508.756 561.77 508.756C561.569 508.756 561.388 508.73 561.186 508.73C561.045 508.73 560.898 508.75 560.757 508.75C559.596 508.756 558.409 508.789 557.195 508.875C562.817 521.825 568.17 534.875 573.209 548.036C573.215 548.043 573.215 548.05 573.215 548.056C574.731 552.025 576.221 556.006 577.677 560.001C577.683 560.007 577.69 560.014 577.69 560.021C582.889 574.274 587.706 588.699 592.06 603.315C594.066 610.048 595.978 616.801 597.81 623.58C597.81 623.6 597.823 623.627 597.83 623.646C598.91 627.681 599.97 631.722 600.996 635.77C600.996 635.783 600.996 635.789 601.003 635.796C606.746 658.495 611.509 681.432 615.259 704.528V704.541C615.87 708.324 616.46 712.107 617.024 715.897C617.024 715.91 617.024 715.93 617.024 715.943C620.559 739.952 623.001 764.119 624.303 788.339C624.303 788.352 624.303 788.365 624.303 788.365C624.511 792.301 624.699 796.223 624.846 800.158C624.846 800.178 624.846 800.198 624.846 800.218C625.745 823.875 625.557 847.586 624.236 871.237C624.236 871.237 624.236 871.251 624.229 871.251C624.101 873.506 623.967 875.755 623.82 878.01C623.692 880.087 623.545 882.15 623.39 884.221C623.39 884.24 623.39 884.26 623.39 884.274C621.8 905.822 619.264 927.317 615.796 948.66C615.789 948.666 615.789 948.68 615.789 948.693C615.078 953.058 614.327 957.41 613.542 961.755C613.542 961.762 613.542 961.768 613.535 961.775C609.376 984.772 604.129 1007.57 597.816 1030.07C597.81 1030.09 597.81 1030.1 597.81 1030.1C596.548 1034.59 595.247 1039.07 593.905 1043.54C593.905 1043.54 593.898 1043.54 593.898 1043.55C586.358 1068.63 577.475 1093.33 567.305 1117.47V1117.47C565.326 1122.17 563.306 1126.82 561.233 1131.47C561.233 1131.47 561.227 1131.48 561.227 1131.49C546.367 1164.78 529.01 1196.99 509.242 1227.67H522.513C546.038 1227.67 569.559 1227.67 593.073 1227.67C604.84 1227.67 616.594 1227.66 628.361 1227.66C629.267 1227.66 630.294 1227.74 631.347 1227.83C632.333 1227.9 633.346 1227.97 634.339 1227.98C634.393 1227.98 634.446 1227.98 634.5 1227.98C634.527 1227.98 634.547 1227.98 634.574 1227.98C635.171 1227.98 635.755 1227.94 636.318 1227.87C636.446 1227.85 636.566 1227.83 636.694 1227.81C637.271 1227.71 637.828 1227.58 638.331 1227.37C639.317 1226.95 640.149 1226.25 640.692 1225.17C642.309 1221.91 641.907 1217.84 642.45 1214.35C646.348 1189.24 648.226 1163.76 650.031 1138.44C650.071 1137.84 650.111 1137.25 650.152 1136.67C650.185 1136.16 650.219 1135.65 650.252 1135.14C650.507 1131.59 650.729 1128.02 650.937 1124.46C650.977 1123.82 650.997 1123.19 651.037 1122.56C651.453 1115.52 651.822 1108.47 652.131 1101.42C652.137 1101.19 652.151 1100.96 652.164 1100.73C652.171 1100.53 652.178 1100.32 652.184 1100.1C652.278 1097.92 652.339 1095.73 652.419 1093.54C652.58 1089.54 652.735 1085.53 652.855 1081.51C652.882 1080.55 652.922 1079.58 652.956 1078.62C652.956 1078.52 652.963 1078.44 652.963 1078.34C652.976 1077.94 652.989 1077.55 652.996 1077.15C653.003 1076.9 653.01 1076.66 653.016 1076.41C653.023 1076.33 653.023 1076.25 653.023 1076.16C653.291 1066.37 653.472 1056.59 653.587 1046.81C653.593 1046.39 653.607 1045.96 653.607 1045.55C653.66 1041.8 653.687 1038.04 653.714 1034.3C653.741 1030.27 653.754 1026.25 653.768 1022.21C653.768 1021.51 653.768 1020.8 653.768 1020.1C653.768 1019.69 653.768 1019.27 653.768 1018.86C653.768 1018.59 653.768 1018.31 653.768 1018.04C653.768 1016.38 653.768 1014.71 653.768 1013.05Z" fill="#E5794B"/>
<path d="M629.709 1120.68C613.4 1118.42 597.037 1117.19 580.567 1117.2C580.205 1117.2 579.842 1117.2 579.487 1117.2C575.435 1117.21 571.389 1117.3 567.337 1117.44V1117.45C565.358 1122.15 563.339 1126.8 561.266 1131.45C570.182 1130.85 579.118 1130.56 588.061 1130.56C599.164 1130.56 610.267 1131 621.316 1131.88C630.822 1132.64 640.322 1133.73 649.775 1135.04L650.285 1135.12C650.54 1131.57 650.761 1128 650.969 1124.44C643.938 1122.91 636.847 1121.66 629.709 1120.68Z" fill="#B7512B"/>
<path d="M635.278 1031.78C624.672 1030.62 614.018 1030.01 603.365 1030.01C601.513 1030.01 599.661 1030.03 597.81 1030.06C597.803 1030.08 597.803 1030.09 597.803 1030.1C596.542 1034.58 595.24 1039.06 593.898 1043.53C600.292 1043.16 606.712 1042.99 613.106 1042.99C615.809 1042.99 618.506 1043.03 621.196 1043.09C630.596 1043.3 639.968 1043.94 649.3 1044.98C650.722 1045.13 652.158 1045.33 653.6 1045.54C653.654 1041.79 653.681 1038.03 653.707 1034.3C647.602 1033.24 641.437 1032.44 635.278 1031.78Z" fill="#B7512B"/>
<path d="M627.717 948.675C625.436 948.615 623.148 948.589 620.861 948.589C619.183 948.589 617.493 948.595 615.809 948.635C615.802 948.642 615.802 948.655 615.802 948.668C615.091 953.033 614.34 957.385 613.555 961.731C618.271 961.466 622.987 961.307 627.717 961.254C628.515 961.248 629.3 961.241 630.092 961.241C637.834 961.241 645.542 961.645 653.257 962.055C653.21 959.442 653.157 956.836 653.096 954.23C653.076 953.324 653.063 952.412 653.036 951.492C653.029 951.148 653.022 950.804 653.016 950.454C644.636 949.363 636.157 948.893 627.717 948.675Z" fill="#B7512B"/>
<path d="M632.164 871.75C629.514 871.518 626.87 871.333 624.22 871.201C624.22 871.201 624.22 871.214 624.214 871.214C624.086 873.47 623.952 875.718 623.804 877.974C623.677 880.05 623.529 882.114 623.375 884.184C626.307 884.237 629.238 884.343 632.164 884.495C638.389 884.812 644.602 885.408 650.787 886.234C650.693 884.27 650.599 882.306 650.505 880.335C650.452 879.124 650.391 877.907 650.338 876.697C650.291 875.798 650.25 874.898 650.203 873.999V873.992C644.219 873.007 638.188 872.286 632.164 871.75Z" fill="#B7512B"/>
<path d="M633.689 788.997C630.569 788.693 627.463 788.462 624.344 788.316C624.344 788.329 624.344 788.342 624.344 788.342C624.552 792.278 624.74 796.2 624.887 800.135C627.537 800.175 630.187 800.274 632.83 800.426C637.137 800.664 641.418 801.087 645.684 801.656C645.409 797.9 645.108 794.156 644.812 790.399C641.122 789.831 637.419 789.368 633.689 788.997Z" fill="#B7512B"/>
<path d="M615.297 704.496V704.51C615.907 708.293 616.498 712.076 617.061 715.866C621.724 716.104 626.386 716.474 631.036 716.97C633.357 717.228 635.672 717.532 637.966 717.883C637.584 714.219 637.174 710.568 636.758 706.917C629.654 705.713 622.448 704.939 615.297 704.496Z" fill="#B7512B"/>
<path d="M625.995 625.418C624.747 625.239 623.486 625.074 622.225 624.909C614.966 624.003 607.653 623.553 600.334 623.553C599.502 623.553 598.677 623.566 597.852 623.573C597.852 623.593 597.865 623.619 597.872 623.639C598.952 627.673 600.012 631.714 601.038 635.762C603.172 635.696 605.312 635.65 607.459 635.65C612.081 635.65 616.71 635.828 621.326 636.152C623.479 636.298 625.626 636.503 627.766 636.734C627.632 635.802 627.484 634.863 627.343 633.923C627.095 632.303 626.827 630.683 626.572 629.062C626.377 627.852 626.19 626.635 625.995 625.418Z" fill="#B7512B"/>
<path d="M609.086 550.365C607.885 550.1 606.678 549.869 605.47 549.657C597.963 548.314 590.429 547.64 582.882 547.64C579.668 547.64 576.455 547.759 573.234 548.004C573.241 548.01 573.241 548.017 573.241 548.023C574.757 551.992 576.247 555.973 577.702 559.968C580.882 559.71 584.076 559.578 587.256 559.578C592.609 559.578 597.95 559.942 603.196 560.623C606.45 561.046 609.663 561.628 612.856 562.336C612.373 560.59 611.857 558.844 611.327 557.111C611.293 556.999 611.253 556.893 611.213 556.774C610.549 554.624 609.844 552.481 609.086 550.365Z" fill="#B7512B"/>
</svg>
